<svg aria-hidden="true" style="position: absolute; width: 0; height: 0; overflow: hidden;" version="1.1" xmlns="http://www.w3.org/2000/svg" xmlns:xlink="http://www.w3.org/1999/xlink">
<defs>

<symbol id="alcove"  viewBox="0 0 32 32">
<path d="M8 4v4h-4v-4h4zM10 28v-4c0-0.54-0.22-1.040-0.59-1.42-0.38-0.37-0.88-0.58-1.41-0.58h-4c-0.54 0-1.040 0.21-1.42 0.58-0.37 0.38-0.58 0.88-0.58 1.42v4c0 0.53 0.21 1.030 0.58 1.41 0.38 0.37 0.88 0.59 1.42 0.59h4c0.53 0 1.030-0.22 1.41-0.59 0.37-0.38 0.59-0.88 0.59-1.41zM10 18v-4c0-0.54-0.22-1.040-0.59-1.42-0.38-0.37-0.88-0.58-1.41-0.58h-4c-0.54 0-1.040 0.21-1.42 0.58-0.37 0.38-0.58 0.88-0.58 1.42v4c0 0.53 0.21 1.030 0.58 1.41 0.38 0.37 0.88 0.59 1.42 0.59h4c0.53 0 1.030-0.22 1.41-0.59 0.37-0.38 0.59-0.88 0.59-1.41zM10 8v-4c0-0.54-0.22-1.040-0.59-1.42-0.38-0.37-0.88-0.58-1.41-0.58h-4c-0.54 0-1.040 0.21-1.42 0.58-0.37 0.38-0.58 0.88-0.58 1.42v4c0 0.53 0.21 1.030 0.58 1.41 0.38 0.37 0.88 0.59 1.42 0.59h4c0.53 0 1.030-0.22 1.41-0.59 0.37-0.38 0.59-0.88 0.59-1.41zM20 28v-4c0-0.54-0.22-1.040-0.59-1.42-0.38-0.37-0.88-0.58-1.41-0.58h-4c-0.54 0-1.040 0.21-1.42 0.58-0.37 0.38-0.58 0.88-0.58 1.42v4c0 0.53 0.21 1.030 0.58 1.41 0.38 0.37 0.88 0.59 1.42 0.59h4c0.53 0 1.030-0.22 1.41-0.59 0.37-0.38 0.59-0.88 0.59-1.41zM20 18v-4c0-0.54-0.22-1.040-0.59-1.42-0.38-0.37-0.88-0.58-1.41-0.58h-4c-0.54 0-1.040 0.21-1.42 0.58-0.37 0.38-0.58 0.88-0.58 1.42v4c0 0.53 0.21 1.030 0.58 1.41 0.38 0.37 0.88 0.59 1.42 0.59h4c0.53 0 1.030-0.22 1.41-0.59 0.37-0.38 0.59-0.88 0.59-1.41zM20 8v-4c0-0.54-0.22-1.040-0.59-1.42-0.38-0.37-0.88-0.58-1.41-0.58h-4c-0.54 0-1.040 0.21-1.42 0.58-0.37 0.38-0.58 0.88-0.58 1.42v4c0 0.53 0.21 1.030 0.58 1.41 0.38 0.37 0.88 0.59 1.42 0.59h4c0.53 0 1.030-0.22 1.41-0.59 0.37-0.38 0.59-0.88 0.59-1.41zM18 4v4h-4v-4h4zM28 4v4h-4v-4h4zM8 14v4h-4v-4h4zM18 14v4h-4v-4h4zM28 14h-4v4h4v-4zM8 24v4h-4v-4h4zM18 24v4h-4v-4h4zM28 24v4h-4v-4h4zM24 2c-0.54 0-1.040 0.21-1.42 0.58-0.37 0.38-0.58 0.88-0.58 1.42v4c0 0.53 0.21 1.030 0.58 1.41 0.38 0.37 0.88 0.59 1.42 0.59h4c0.53 0 1.030-0.22 1.41-0.59 0.37-0.38 0.59-0.88 0.59-1.41v-4c0-0.54-0.22-1.040-0.59-1.42-0.38-0.37-0.88-0.58-1.41-0.58h-4zM22 14c0-0.54 0.21-1.040 0.58-1.42 0.38-0.37 0.88-0.58 1.42-0.58h4c0.53 0 1.030 0.21 1.41 0.58 0.37 0.38 0.59 0.88 0.59 1.42v4c0 0.53-0.22 1.030-0.59 1.41-0.38 0.37-0.88 0.59-1.41 0.59h-4c-0.54 0-1.040-0.22-1.42-0.59-0.37-0.38-0.58-0.88-0.58-1.41v-4zM24 22c-0.54 0-1.040 0.21-1.42 0.58-0.37 0.38-0.58 0.88-0.58 1.42v4c0 0.53 0.21 1.030 0.58 1.41 0.38 0.37 0.88 0.59 1.42 0.59h4c0.53 0 1.030-0.22 1.41-0.59 0.37-0.38 0.59-0.88 0.59-1.41v-4c0-0.54-0.22-1.040-0.59-1.42-0.38-0.37-0.88-0.58-1.41-0.58h-4z"></path>
</symbol>

<symbol id="transmission"   viewBox="0 0 32 32">
<path d="M12 7c0-0.8 0.31-1.56 0.87-2.13 0.57-0.56 1.33-0.87 2.13-0.87h2c0.79 0 1.55 0.31 2.12 0.87 0.56 0.57 0.88 1.33 0.88 2.13v2c0 0.79-0.32 1.55-0.88 2.12-0.57 0.56-1.33 0.88-2.12 0.88v2h11c0.26 0 0.51 0.1 0.7 0.29s0.3 0.44 0.3 0.71v2c0 0.26-0.11 0.51-0.3 0.7s-0.44 0.3-0.7 0.3c-0.27 0-0.52-0.11-0.71-0.3s-0.29-0.44-0.29-0.7v-1h-10v1c0 0.26-0.11 0.51-0.3 0.7s-0.44 0.3-0.7 0.3c-0.27 0-0.52-0.11-0.71-0.3s-0.29-0.44-0.29-0.7v-1h-10v1c0 0.26-0.11 0.51-0.3 0.7s-0.44 0.3-0.7 0.3c-0.27 0-0.52-0.11-0.71-0.3s-0.29-0.44-0.29-0.7v-2c0-0.27 0.1-0.52 0.29-0.71s0.44-0.29 0.71-0.29h11v-2c-0.8 0-1.56-0.32-2.13-0.88-0.56-0.57-0.87-1.33-0.87-2.12v-2zM17 10c0.26 0 0.51-0.11 0.7-0.3s0.3-0.44 0.3-0.7v-2c0-0.27-0.11-0.52-0.3-0.71s-0.44-0.29-0.7-0.29h-2c-0.27 0-0.52 0.1-0.71 0.29s-0.29 0.44-0.29 0.71v2c0 0.26 0.1 0.51 0.29 0.7s0.44 0.3 0.71 0.3h2zM0 23c0-0.8 0.31-1.56 0.87-2.13 0.57-0.56 1.33-0.87 2.13-0.87h2c0.79 0 1.55 0.31 2.12 0.87 0.56 0.57 0.88 1.33 0.88 2.13v2c0 0.79-0.32 1.55-0.88 2.12-0.57 0.56-1.33 0.88-2.12 0.88h-2c-0.8 0-1.56-0.32-2.13-0.88-0.56-0.57-0.87-1.33-0.87-2.12v-2zM3 22c-0.27 0-0.52 0.1-0.71 0.29s-0.29 0.44-0.29 0.71v2c0 0.26 0.1 0.51 0.29 0.7s0.44 0.3 0.71 0.3h2c0.26 0 0.51-0.11 0.7-0.3s0.3-0.44 0.3-0.7v-2c0-0.27-0.11-0.52-0.3-0.71s-0.44-0.29-0.7-0.29h-2zM12 23c0-0.8 0.31-1.56 0.87-2.13 0.57-0.56 1.33-0.87 2.13-0.87h2c0.79 0 1.55 0.31 2.12 0.87 0.56 0.57 0.88 1.33 0.88 2.13v2c0 0.79-0.32 1.55-0.88 2.12-0.57 0.56-1.33 0.88-2.12 0.88h-2c-0.8 0-1.56-0.32-2.13-0.88-0.56-0.57-0.87-1.33-0.87-2.12v-2zM15 22c-0.27 0-0.52 0.1-0.71 0.29s-0.29 0.44-0.29 0.71v2c0 0.26 0.1 0.51 0.29 0.7s0.44 0.3 0.71 0.3h2c0.26 0 0.51-0.11 0.7-0.3s0.3-0.44 0.3-0.7v-2c0-0.27-0.11-0.52-0.3-0.71s-0.44-0.29-0.7-0.29h-2zM24 23c0-0.8 0.31-1.56 0.87-2.13 0.57-0.56 1.33-0.87 2.13-0.87h2c0.79 0 1.55 0.31 2.12 0.87 0.56 0.57 0.88 1.33 0.88 2.13v2c0 0.79-0.32 1.55-0.88 2.12-0.57 0.56-1.33 0.88-2.12 0.88h-2c-0.8 0-1.56-0.32-2.13-0.88-0.56-0.57-0.87-1.33-0.87-2.12v-2zM27 22c-0.27 0-0.52 0.1-0.71 0.29s-0.29 0.44-0.29 0.71v2c0 0.26 0.1 0.51 0.29 0.7s0.44 0.3 0.71 0.3h2c0.26 0 0.51-0.11 0.7-0.3s0.3-0.44 0.3-0.7v-2c0-0.27-0.11-0.52-0.3-0.71s-0.44-0.29-0.7-0.29h-2z"></path>
</symbol>

<symbol id="cup"  viewBox="0 0 32 32">
<path d="M0.99 12c-0.14 0-0.29 0.030-0.43 0.090-0.13 0.070-0.25 0.16-0.34 0.28-0.1 0.12-0.16 0.25-0.2 0.4-0.030 0.14-0.030 0.29 0 0.44l3.3 14.87c0.25 1.11 0.87 2.1 1.75 2.81 0.89 0.72 2 1.1 3.13 1.11h11.59c1.13-0.010 2.24-0.39 3.13-1.11 0.88-0.71 1.5-1.7 1.75-2.81l0.26-1.18c1.53 0.29 3.11-0.030 4.41-0.89s2.21-2.19 2.55-3.71c0.34-1.52 0.070-3.11-0.74-4.44-0.82-1.32-2.11-2.28-3.62-2.67l0.44-1.98c0.030-0.15 0.030-0.3 0-0.44-0.040-0.15-0.1-0.28-0.2-0.4-0.090-0.12-0.21-0.21-0.34-0.28-0.14-0.060-0.29-0.090-0.43-0.090h-26.010zM26 25c-0.22 0-0.43-0.020-0.64-0.050l1.74-7.8c0.92 0.27 1.72 0.86 2.24 1.67 0.53 0.81 0.74 1.78 0.61 2.73-0.14 0.95-0.61 1.83-1.34 2.46-0.72 0.63-1.65 0.98-2.61 0.99zM5.27 27.65l-3.030-13.65h23.51l-3.030 13.65c-0.15 0.66-0.52 1.26-1.060 1.68-0.53 0.43-1.19 0.66-1.87 0.67h-11.59c-0.68-0.010-1.34-0.24-1.87-0.67-0.54-0.42-0.91-1.020-1.060-1.68z"></path>
<path d="M8.8 1.6h-0.010l-0.030 0.040c-0.14 0.2-0.28 0.41-0.41 0.62-0.1 0.17-0.2 0.35-0.28 0.54-0.050 0.12-0.070 0.18-0.070 0.2v0.010c0.020 0.18 0.080 0.35 0.18 0.5 0.15 0.26 0.35 0.54 0.62 0.89l0.020 0.020c0.23 0.32 0.52 0.69 0.74 1.090s0.44 0.91 0.44 1.49c0 0.37-0.13 0.73-0.24 0.98-0.12 0.27-0.25 0.53-0.41 0.78-0.15 0.26-0.32 0.52-0.5 0.76l-0.040 0.050-0.010 0.020c-0.16 0.22-0.4 0.36-0.66 0.39-0.26 0.040-0.53-0.030-0.74-0.18-0.22-0.16-0.36-0.4-0.39-0.66-0.040-0.27 0.030-0.53 0.19-0.74v-0.010l0.030-0.040c0.14-0.2 0.28-0.41 0.41-0.62 0.1-0.17 0.2-0.35 0.28-0.53 0.050-0.12 0.070-0.19 0.070-0.21-0.020-0.18-0.080-0.35-0.18-0.5-0.18-0.32-0.39-0.61-0.61-0.89l-0.030-0.030c-0.27-0.34-0.51-0.71-0.73-1.080-0.28-0.46-0.43-0.97-0.44-1.49 0-0.38 0.13-0.74 0.23-0.99 0.12-0.28 0.27-0.55 0.41-0.78 0.16-0.26 0.32-0.51 0.5-0.76l0.050-0.070c0.16-0.22 0.4-0.36 0.66-0.39 0.26-0.040 0.53 0.030 0.74 0.19 0.22 0.15 0.36 0.39 0.39 0.65 0.040 0.27-0.030 0.53-0.18 0.75zM14.8 1.6h-0.010l-0.030 0.040c-0.14 0.2-0.28 0.41-0.41 0.62-0.1 0.17-0.2 0.35-0.28 0.54-0.050 0.12-0.070 0.18-0.070 0.2v0.010c0.020 0.18 0.080 0.35 0.18 0.5 0.15 0.26 0.36 0.54 0.62 0.89l0.020 0.020c0.23 0.32 0.52 0.69 0.74 1.090s0.44 0.91 0.44 1.49c0 0.37-0.13 0.73-0.24 0.98-0.12 0.27-0.25 0.53-0.41 0.78-0.15 0.26-0.32 0.52-0.5 0.76l-0.040 0.050-0.010 0.020c-0.16 0.22-0.4 0.36-0.66 0.39-0.26 0.040-0.53-0.030-0.74-0.18-0.22-0.16-0.36-0.4-0.39-0.66-0.040-0.27 0.030-0.53 0.19-0.74v-0.010l0.030-0.040c0.14-0.2 0.28-0.41 0.41-0.62 0.1-0.17 0.2-0.35 0.28-0.53 0.050-0.12 0.070-0.19 0.070-0.21-0.020-0.18-0.080-0.35-0.18-0.5-0.18-0.32-0.39-0.61-0.61-0.89l-0.020-0.030c-0.28-0.34-0.52-0.71-0.74-1.080-0.28-0.46-0.43-0.97-0.44-1.49 0-0.38 0.13-0.74 0.23-0.99 0.12-0.28 0.27-0.55 0.41-0.78 0.16-0.26 0.32-0.51 0.5-0.76l0.050-0.070c0.16-0.22 0.4-0.36 0.66-0.39 0.26-0.040 0.53 0.030 0.74 0.19 0.22 0.15 0.36 0.39 0.39 0.65 0.040 0.27-0.030 0.53-0.18 0.75zM20.8 1.6h-0.010l-0.030 0.040c-0.14 0.2-0.28 0.41-0.41 0.62-0.1 0.17-0.2 0.35-0.28 0.54-0.050 0.12-0.070 0.18-0.070 0.2v0.010c0.020 0.18 0.080 0.35 0.18 0.5 0.15 0.26 0.36 0.54 0.62 0.89l0.020 0.020c0.23 0.32 0.52 0.69 0.74 1.090s0.44 0.91 0.44 1.49c0 0.37-0.13 0.73-0.24 0.98-0.12 0.27-0.25 0.53-0.41 0.78-0.15 0.26-0.32 0.52-0.5 0.76l-0.040 0.050-0.010 0.020c-0.16 0.22-0.4 0.36-0.66 0.39-0.26 0.040-0.53-0.030-0.74-0.18-0.22-0.16-0.36-0.4-0.39-0.66-0.040-0.27 0.030-0.53 0.19-0.74v-0.010l0.030-0.040c0.14-0.2 0.28-0.41 0.41-0.62 0.1-0.17 0.2-0.35 0.28-0.53 0.050-0.12 0.070-0.19 0.070-0.21-0.020-0.18-0.080-0.35-0.18-0.5-0.18-0.32-0.39-0.61-0.61-0.89l-0.020-0.030c-0.28-0.34-0.52-0.71-0.74-1.080-0.28-0.46-0.43-0.97-0.44-1.49 0-0.38 0.12-0.74 0.23-0.99 0.12-0.28 0.27-0.55 0.41-0.78 0.16-0.26 0.32-0.51 0.5-0.76l0.050-0.070c0.16-0.22 0.4-0.36 0.66-0.39 0.26-0.040 0.53 0.030 0.74 0.19 0.22 0.15 0.36 0.39 0.39 0.65 0.040 0.27-0.030 0.53-0.18 0.75z"></path>
</symbol>

<symbol id="fridge"  viewBox="0 0 32 32">
<path d="M23.66 9.33c0-0.27-0.1-0.52-0.29-0.71s-0.44-0.29-0.71-0.29c-0.26 0-0.52 0.1-0.71 0.29-0.18 0.19-0.29 0.44-0.29 0.71v2.67c0 0.26 0.11 0.51 0.29 0.7 0.19 0.19 0.45 0.3 0.71 0.3 0.27 0 0.52-0.11 0.71-0.3s0.29-0.44 0.29-0.7v-2.67zM23.66 18.66c0-0.26-0.1-0.52-0.29-0.71-0.19-0.18-0.44-0.29-0.71-0.29-0.26 0-0.52 0.11-0.71 0.29-0.18 0.19-0.29 0.45-0.29 0.71v2.67c0 0.26 0.11 0.52 0.29 0.71 0.19 0.18 0.45 0.29 0.71 0.29 0.27 0 0.52-0.11 0.71-0.29 0.19-0.19 0.29-0.45 0.29-0.71v-2.67z"></path>
<path d="M16.070 1.66h-0.15c-2.45 0-4.39 0-5.91 0.21-1.56 0.21-2.83 0.65-3.83 1.65-0.99 0.99-1.44 2.26-1.65 3.82-0.2 1.52-0.2 3.46-0.2 5.91v4.15c0 2.45 0 4.4 0.2 5.91 0.21 1.57 0.66 2.83 1.65 3.83 0.62 0.61 1.33 1.020 2.15 1.28v0.91c0 0.55 0.45 1 1 1h1.33c0.27 0 0.52-0.11 0.71-0.29 0.19-0.19 0.29-0.45 0.29-0.71v-0.4c1.21 0.060 2.62 0.060 4.26 0.060h0.15c1.64 0 3.050 0 4.26-0.060v0.4c0 0.55 0.45 1 1 1h1.33c0.27 0 0.52-0.11 0.71-0.29 0.19-0.19 0.29-0.45 0.29-0.71v-0.91c0.82-0.26 1.54-0.67 2.15-1.28 0.99-1 1.44-2.26 1.65-3.83 0.2-1.52 0.2-3.46 0.2-5.91v-4.15c0-2.45 0-4.39-0.2-5.91-0.21-1.56-0.66-2.82-1.65-3.82-1-1-2.27-1.44-3.83-1.65-1.52-0.21-3.46-0.21-5.91-0.21v0zM7.6 4.93c0.56-0.56 1.33-0.9 2.68-1.080 1.37-0.19 3.17-0.19 5.72-0.19 2.54 0 4.34 0 5.72 0.19 1.34 0.18 2.11 0.52 2.67 1.080 0.57 0.56 0.91 1.34 1.090 2.68 0.18 1.37 0.18 3.18 0.18 5.72v1h-19.33v-1c0-2.54 0-4.35 0.18-5.72 0.18-1.34 0.52-2.12 1.090-2.68zM6.33 16.33h19.33v1c0 2.54 0 4.35-0.18 5.72-0.18 1.34-0.52 2.11-1.090 2.68-0.56 0.56-1.33 0.9-2.68 1.080-1.37 0.18-3.17 0.18-5.71 0.18-2.55 0-4.35 0-5.72-0.18-1.35-0.18-2.12-0.52-2.68-1.080-0.57-0.57-0.91-1.34-1.090-2.68-0.18-1.37-0.18-3.18-0.18-5.72v-1z"></path>
</symbol>

<symbol id="integrated"  viewBox="0 0 32 32">
<path d="M2 5c0-0.8 0.31-1.56 0.87-2.13 0.57-0.56 1.33-0.87 2.13-0.87h6c0.79 0 1.55 0.31 2.12 0.87 0.56 0.57 0.88 1.33 0.88 2.13v6c0 0.79-0.32 1.55-0.88 2.12-0.57 0.56-1.33 0.88-2.12 0.88h-6c-0.8 0-1.56-0.32-2.13-0.88-0.56-0.57-0.87-1.33-0.87-2.12v-6zM5 4c-0.27 0-0.52 0.1-0.71 0.29s-0.29 0.44-0.29 0.71v6c0 0.26 0.1 0.51 0.29 0.7s0.44 0.3 0.71 0.3h6c0.26 0 0.51-0.11 0.7-0.3s0.3-0.44 0.3-0.7v-6c0-0.27-0.11-0.52-0.3-0.71s-0.44-0.29-0.7-0.29h-6zM18 5c0-0.8 0.31-1.56 0.87-2.13 0.57-0.56 1.33-0.87 2.13-0.87h6c0.79 0 1.55 0.31 2.12 0.87 0.56 0.57 0.88 1.33 0.88 2.13v6c0 0.79-0.32 1.55-0.88 2.12-0.57 0.56-1.33 0.88-2.12 0.88h-6c-0.8 0-1.56-0.32-2.13-0.88-0.56-0.57-0.87-1.33-0.87-2.12v-6zM21 4c-0.27 0-0.52 0.1-0.71 0.29s-0.29 0.44-0.29 0.71v6c0 0.26 0.1 0.51 0.29 0.7s0.44 0.3 0.71 0.3h6c0.26 0 0.51-0.11 0.7-0.3s0.3-0.44 0.3-0.7v-6c0-0.27-0.11-0.52-0.3-0.71s-0.44-0.29-0.7-0.29h-6zM2 21c0-0.8 0.31-1.56 0.87-2.13 0.57-0.56 1.33-0.87 2.13-0.87h6c0.79 0 1.55 0.31 2.12 0.87 0.56 0.57 0.88 1.33 0.88 2.13v6c0 0.79-0.32 1.55-0.88 2.12-0.57 0.56-1.33 0.88-2.12 0.88h-6c-0.8 0-1.56-0.32-2.13-0.88-0.56-0.57-0.87-1.33-0.87-2.12v-6zM5 20c-0.27 0-0.52 0.1-0.71 0.29s-0.29 0.44-0.29 0.71v6c0 0.26 0.1 0.51 0.29 0.7s0.44 0.3 0.71 0.3h6c0.26 0 0.51-0.11 0.7-0.3s0.3-0.44 0.3-0.7v-6c0-0.27-0.11-0.52-0.3-0.71s-0.44-0.29-0.7-0.29h-6zM18 21c0-0.8 0.31-1.56 0.87-2.13 0.57-0.56 1.33-0.87 2.13-0.87h6c0.79 0 1.55 0.31 2.12 0.87 0.56 0.57 0.88 1.33 0.88 2.13v6c0 0.79-0.32 1.55-0.88 2.12-0.57 0.56-1.33 0.88-2.12 0.88h-6c-0.8 0-1.56-0.32-2.13-0.88-0.56-0.57-0.87-1.33-0.87-2.12v-6zM21 20c-0.27 0-0.52 0.1-0.71 0.29s-0.29 0.44-0.29 0.71v6c0 0.26 0.1 0.51 0.29 0.7s0.44 0.3 0.71 0.3h6c0.26 0 0.51-0.11 0.7-0.3s0.3-0.44 0.3-0.7v-6c0-0.27-0.11-0.52-0.3-0.71s-0.44-0.29-0.7-0.29h-6z"></path>
</symbol>

<symbol id="heart" viewBox="0 0 32 32">
<path d="M16 13.133l-1.8-3.573c-0.44-0.893-1.213-2.16-2.293-3.2-1.080-1.013-2.36-1.693-3.907-1.693-3.36 0-6 2.64-6 5.84 0 2.413 1.107 4.12 3.733 6.733 0.667 0.667 1.44 1.387 2.293 2.187 2.213 2.080 4.973 4.667 7.973 8.133 3-3.467 5.747-6.053 7.96-8.133 0.853-0.8 1.627-1.52 2.293-2.187 2.627-2.613 3.747-4.32 3.747-6.733 0-3.2-2.653-5.84-6-5.84-1.56 0-2.84 0.68-3.92 1.693-1.080 1.040-1.853 2.307-2.293 3.2l-1.787 3.573zM16.773 29.72c-0.093 0.107-0.213 0.2-0.347 0.267s-0.28 0.093-0.427 0.093c-0.16 0-0.307-0.027-0.44-0.093s-0.253-0.16-0.347-0.267c-3.2-3.813-6.107-6.533-8.493-8.76-4.12-3.88-6.72-6.32-6.72-10.453 0-4.333 3.573-7.84 8-7.84 3.187 0 5.427 2.093 6.8 4.013 0.52 0.72 0.92 1.427 1.2 1.987 0.333-0.693 0.733-1.36 1.187-1.987 1.373-1.92 3.613-4.013 6.813-4.013 4.413 0 8 3.507 8 7.84 0 4.133-2.6 6.573-6.733 10.453-2.387 2.24-5.293 4.96-8.493 8.76z"></path>
</symbol>

<symbol id="map" viewBox="0 0 32 32">
<path d="M31.63 0.22c0.11 0.090 0.21 0.21 0.27 0.35 0.060 0.13 0.1 0.28 0.1 0.42v28c-0.010 0.24-0.090 0.46-0.23 0.64-0.15 0.18-0.35 0.3-0.58 0.34l-10 2c-0.13 0.030-0.26 0.030-0.39 0l-9.8-1.96-9.81 1.96c-0.14 0.030-0.29 0.030-0.44-0.010-0.14-0.030-0.27-0.1-0.39-0.19-0.11-0.1-0.21-0.21-0.27-0.35-0.060-0.13-0.090-0.28-0.090-0.43v-28c0-0.23 0.080-0.45 0.22-0.63 0.15-0.18 0.35-0.3 0.58-0.35l10-2c0.13-0.020 0.26-0.020 0.39 0l9.81 1.96 9.8-1.96c0.14-0.020 0.29-0.020 0.44 0.010 0.14 0.040 0.27 0.11 0.39 0.2zM20 3.81l-8-1.6v25.96l8 1.6v-25.96zM22 29.77l8-1.6v-25.96l-8 1.6v25.96zM10 28.17v-25.96l-8 1.6v25.96l8-1.6z"></path>
</symbol>

<symbol id="microwave" viewBox="0 0 32 32">
<path d="M26.7 26.3h-21.4c-2 0-3.7-1.6-3.7-3.7v-14.6c0-2 1.6-3.7 3.7-3.7h21.3c2 0 3.7 1.6 3.7 3.7v14.7c0 2-1.6 3.6-3.6 3.6zM5.3 6.3c-0.9 0-1.6 0.8-1.6 1.7v14.7c0 0.9 0.7 1.7 1.7 1.7h21.3c0.9 0 1.7-0.7 1.7-1.7v-14.7c0-0.9-0.7-1.7-1.7-1.7h-21.4z"></path>
<path d="M24 29c-0.6 0-1-0.4-1-1v-2.7c0-0.6 0.4-1 1-1s1 0.4 1 1v2.7c0 0.6-0.4 1-1 1zM8 29c-0.6 0-1-0.4-1-1v-2.7c0-0.6 0.4-1 1-1s1 0.4 1 1v2.7c0 0.6-0.4 1-1 1zM24 21c-0.6 0-1-0.4-1-1v-9.3c0-0.6 0.4-1 1-1s1 0.4 1 1v9.3c0 0.6-0.4 1-1 1zM17.3 21h-8c-1.3 0-2.3-1-2.3-2.3v-6.7c0-1.3 1-2.3 2.3-2.3h8c1.3 0 2.3 1 2.3 2.3v6.7c0.1 1.3-1 2.3-2.3 2.3zM9.3 11.7c-0.2 0-0.3 0.1-0.3 0.3v6.7c0 0.2 0.1 0.3 0.3 0.3h8c0.2 0 0.3-0.1 0.3-0.3v-6.7c0-0.2-0.1-0.3-0.3-0.3h-8z"></path>
</symbol>

<symbol id="engine"  viewBox="0 0 32 32">
<path d="M6 5c0-0.27 0.1-0.52 0.29-0.71s0.44-0.29 0.71-0.29h10c0.26 0 0.51 0.1 0.7 0.29s0.3 0.44 0.3 0.71v10c0 0.26-0.11 0.51-0.3 0.7s-0.44 0.3-0.7 0.3h-10c-0.27 0-0.52-0.11-0.71-0.3s-0.29-0.44-0.29-0.7v-10z"></path>
<path d="M2 4c0-1.070 0.42-2.080 1.17-2.83s1.76-1.17 2.83-1.17h12c1.060 0 2.070 0.42 2.82 1.17s1.18 1.76 1.18 2.83v16c1.060 0 2.070 0.42 2.82 1.17s1.18 1.76 1.18 2.83v1c0 0.26 0.1 0.51 0.29 0.7s0.44 0.3 0.71 0.3c0.26 0 0.51-0.11 0.7-0.3s0.3-0.44 0.3-0.7v-9h-1c-0.27 0-0.52-0.11-0.71-0.3s-0.29-0.44-0.29-0.7v-6.25c0-0.27 0.1-0.52 0.29-0.71s0.44-0.29 0.71-0.29h2.99c-0.030-0.96-0.11-1.79-0.41-2.45-0.16-0.38-0.43-0.7-0.78-0.91-0.37-0.23-0.93-0.39-1.8-0.39-0.27 0-0.52-0.11-0.71-0.3s-0.29-0.44-0.29-0.7c0-0.27 0.1-0.52 0.29-0.71s0.44-0.29 0.71-0.29c1.12-0.010 2.060 0.22 2.82 0.67 0.77 0.45 1.27 1.1 1.59 1.81 0.59 1.31 0.59 2.93 0.59 4.16v6.35c0 0.13-0.030 0.26-0.080 0.39-0.050 0.12-0.12 0.23-0.22 0.32-0.090 0.090-0.2 0.17-0.32 0.22s-0.25 0.080-0.38 0.080h-1v9c0 0.79-0.32 1.55-0.88 2.12-0.57 0.56-1.33 0.88-2.12 0.88-0.8 0-1.56-0.32-2.13-0.88-0.56-0.57-0.87-1.33-0.87-2.12v-1c0-0.54-0.22-1.040-0.59-1.42-0.38-0.37-0.88-0.58-1.41-0.58v8h1c0.26 0 0.51 0.1 0.7 0.29s0.3 0.44 0.3 0.71c0 0.26-0.11 0.51-0.3 0.7s-0.44 0.3-0.7 0.3h-22c-0.27 0-0.52-0.11-0.71-0.3s-0.29-0.44-0.29-0.7c0-0.27 0.1-0.52 0.29-0.71s0.44-0.29 0.71-0.29h1v-26zM20 4c0-0.54-0.22-1.040-0.59-1.42-0.38-0.37-0.88-0.58-1.41-0.58h-12c-0.54 0-1.040 0.21-1.42 0.58-0.37 0.38-0.58 0.88-0.58 1.42v26h16v-26z"></path>
</symbol>

<symbol id="radio"  viewBox="0 0 32 32">
<path d="M14 5c0-0.27 0.1-0.52 0.29-0.71s0.44-0.29 0.71-0.29h14c0.26 0 0.51 0.1 0.7 0.29s0.3 0.44 0.3 0.71v2c0 0.26-0.11 0.51-0.3 0.7s-0.44 0.3-0.7 0.3h-14c-0.27 0-0.52-0.11-0.71-0.3s-0.29-0.44-0.29-0.7v-2zM0 24c0-1.6 0.63-3.12 1.75-4.25 1.13-1.12 2.65-1.75 4.25-1.75 1.59 0 3.11 0.63 4.24 1.75 1.12 1.13 1.76 2.65 1.76 4.25 0 1.59-0.64 3.11-1.76 4.24-1.13 1.12-2.65 1.76-4.24 1.76-1.6 0-3.12-0.64-4.25-1.76-1.12-1.13-1.75-2.65-1.75-4.24zM14 21c0-0.27 0.1-0.52 0.29-0.71s0.44-0.29 0.71-0.29h14c0.26 0 0.51 0.1 0.7 0.29s0.3 0.44 0.3 0.71v2c0 0.26-0.11 0.51-0.3 0.7s-0.44 0.3-0.7 0.3h-14c-0.27 0-0.52-0.11-0.71-0.3s-0.29-0.44-0.29-0.7v-2zM14 11c0-0.27 0.1-0.52 0.29-0.71s0.44-0.29 0.71-0.29h10c0.26 0 0.51 0.1 0.7 0.29s0.3 0.44 0.3 0.71c0 0.26-0.11 0.51-0.3 0.7s-0.44 0.3-0.7 0.3h-10c-0.27 0-0.52-0.11-0.71-0.3s-0.29-0.44-0.29-0.7zM14 27c0-0.27 0.1-0.52 0.29-0.71s0.44-0.29 0.71-0.29h10c0.26 0 0.51 0.1 0.7 0.29s0.3 0.44 0.3 0.71c0 0.26-0.11 0.51-0.3 0.7s-0.44 0.3-0.7 0.3h-10c-0.27 0-0.52-0.11-0.71-0.3s-0.29-0.44-0.29-0.7zM6 2c-0.79 0-1.57 0.15-2.3 0.45s-1.39 0.75-1.95 1.3c-0.55 0.56-1 1.22-1.3 1.95s-0.45 1.51-0.45 2.3c0 0.78 0.15 1.56 0.45 2.29s0.75 1.39 1.3 1.95c0.56 0.55 1.22 1 1.95 1.3s1.51 0.46 2.3 0.46c1.59 0 3.11-0.64 4.24-1.76 1.12-1.13 1.76-2.65 1.76-4.24 0-1.6-0.64-3.12-1.76-4.25-1.13-1.12-2.65-1.75-4.24-1.75zM6 11c-0.8 0-1.56-0.32-2.13-0.88-0.56-0.57-0.87-1.33-0.87-2.12 0-0.8 0.31-1.56 0.87-2.13 0.57-0.56 1.33-0.87 2.13-0.87 0.79 0 1.55 0.31 2.12 0.87 0.56 0.57 0.88 1.33 0.88 2.13 0 0.79-0.32 1.55-0.88 2.12-0.57 0.56-1.33 0.88-2.12 0.88z"></path>
</symbol>

<symbol id="shower"  viewBox="0 0 32 32">
<path d="M8 29.5c0 0.29-0.090 0.58-0.26 0.83-0.16 0.25-0.4 0.44-0.67 0.55-0.28 0.11-0.58 0.14-0.87 0.090-0.29-0.060-0.56-0.2-0.77-0.41s-0.35-0.48-0.41-0.77c-0.050-0.29-0.020-0.59 0.090-0.87 0.11-0.27 0.3-0.51 0.55-0.67 0.25-0.17 0.54-0.25 0.84-0.25 0.39 0 0.77 0.15 1.060 0.43 0.28 0.29 0.44 0.67 0.44 1.070zM10.5 24c-0.3 0-0.59 0.080-0.84 0.25-0.25 0.16-0.44 0.4-0.55 0.67-0.11 0.28-0.14 0.58-0.090 0.87 0.060 0.29 0.2 0.56 0.41 0.77s0.48 0.35 0.77 0.41c0.29 0.050 0.59 0.020 0.87-0.090 0.27-0.11 0.51-0.3 0.67-0.55 0.17-0.25 0.26-0.54 0.26-0.83 0-0.4-0.16-0.78-0.44-1.070-0.29-0.28-0.67-0.43-1.060-0.43zM2.5 24c-0.3 0-0.59 0.080-0.84 0.25-0.25 0.16-0.44 0.4-0.55 0.67-0.11 0.28-0.14 0.58-0.090 0.87 0.060 0.29 0.2 0.56 0.41 0.77s0.48 0.35 0.77 0.41c0.29 0.050 0.59 0.020 0.87-0.090 0.27-0.11 0.51-0.3 0.67-0.55 0.17-0.25 0.26-0.54 0.26-0.83 0-0.4-0.16-0.78-0.44-1.070-0.29-0.28-0.67-0.43-1.060-0.43zM6.5 20c-0.3 0-0.59 0.080-0.84 0.25-0.25 0.16-0.44 0.4-0.55 0.67-0.11 0.28-0.14 0.58-0.090 0.87 0.060 0.29 0.2 0.56 0.41 0.77s0.48 0.35 0.77 0.41c0.29 0.050 0.59 0.020 0.87-0.090 0.27-0.11 0.51-0.3 0.67-0.55 0.17-0.25 0.26-0.54 0.26-0.83 0-0.4-0.16-0.78-0.44-1.070-0.29-0.28-0.67-0.43-1.060-0.43zM32 5c0 0.26-0.11 0.51-0.3 0.7s-0.44 0.3-0.7 0.3h-3.59l-3.48 3.48-2.71 15.85c-0.060 0.36-0.22 0.7-0.46 0.97-0.24 0.28-0.55 0.49-0.9 0.6s-0.73 0.12-1.080 0.040c-0.36-0.090-0.69-0.27-0.95-0.53l-12.25-12.25c-0.26-0.26-0.44-0.59-0.53-0.94-0.080-0.36-0.070-0.74 0.040-1.090 0.12-0.35 0.32-0.66 0.6-0.9s0.62-0.4 0.98-0.46l15.84-2.71 3.78-3.77c0.090-0.1 0.2-0.17 0.32-0.22s0.25-0.080 0.39-0.070h4c0.26 0 0.51 0.1 0.7 0.29s0.3 0.44 0.3 0.71zM21.77 10.22l-14.77 2.53 12.25 12.25 2.52-14.78z"></path>
</symbol>

<symbol id="star" viewBox="0 0 32 32">
<path   d="M15.1 1.66l-3.78 7.16c-0.14 0.28-0.4 0.46-0.7 0.52l-7.98 1.38c-0.8 0.14-1.1 1.1-0.54 1.68l5.64 5.8c0.22 0.24 0.32 0.54 0.26 0.84l-1.14 8.020c-0.12 0.8 0.7 1.4 1.42 1.040l7.26-3.58c0.28-0.12 0.62-0.12 0.9 0l7.26 3.58c0.72 0.36 1.54-0.24 1.42-1.040l-1.14-8.020c-0.060-0.3 0.040-0.6 0.26-0.84l5.64-5.8c0.56-0.58 0.26-1.54-0.54-1.68l-7.98-1.38c-0.3-0.060-0.56-0.24-0.7-0.52l-3.78-7.16c-0.38-0.7-1.4-0.7-1.78 0z"></path>
</symbol>

<symbol id="stove" viewBox="0 0 32 32">
<path d="M24 30.5h-16c-5.1 0-6.5-1.5-6.5-6.5v-16c0-5.1 1.5-6.5 6.5-6.5h16c5.1 0 6.5 1.5 6.5 6.5v16c0 5.1-1.4 6.5-6.5 6.5zM8 3.9c-3.7 0-4.1 0.4-4.1 4.1v16c0 3.7 0.4 4.1 4.1 4.1h16c3.7 0 4.1-0.4 4.1-4.1v-16c0-3.7-0.4-4.1-4.1-4.1h-16zM24 26.5c-0.7 0-1.2-0.5-1.2-1.2v0c0-0.7 0.5-1.2 1.2-1.2s1.2 0.5 1.2 1.2-0.5 1.2-1.2 1.2zM13.3 26.5h-5.3c-0.7 0-1.2-0.5-1.2-1.2s0.5-1.2 1.2-1.2h5.3c0.7 0 1.2 0.5 1.2 1.2s-0.5 1.2-1.2 1.2z"></path>
<path d="M16 21.2c-0.7 0-1.2-0.5-1.2-1.2v-0.2c-2.6-0.5-4.7-2.6-5.2-5.2h-0.3c-0.7 0-1.2-0.5-1.2-1.2s0.5-1.2 1.2-1.2h0.2c0.5-2.6 2.6-4.7 5.2-5.2v-0.3c0-0.7 0.5-1.2 1.2-1.2s1.2 0.5 1.2 1.2v0.2c2.6 0.5 4.7 2.6 5.2 5.2h0.2c0.7 0 1.2 0.5 1.2 1.2s-0.5 1.2-1.2 1.2h-0.2c-0.5 2.6-2.6 4.7-5.2 5.2v0.3c0.1 0.7-0.4 1.2-1.1 1.2zM16 16.8c0.4 0 0.8 0.2 1 0.5 1.5-0.4 2.6-1.5 3-3-0.3-0.2-0.5-0.6-0.5-1s0.2-0.8 0.5-1c-0.4-1.5-1.5-2.6-3-3-0.2 0.3-0.6 0.5-1 0.5s-0.8-0.2-1-0.5c-1.5 0.4-2.6 1.5-3 3 0.3 0.2 0.5 0.6 0.5 1s-0.2 0.8-0.5 1c0.4 1.5 1.5 2.6 3 3 0.2-0.3 0.6-0.5 1-0.5z"></path>
</symbol>

<symbol id="tv"  viewBox="0 0 32 32">
<path d="M0 8c0 0 0-4 4-4h24c0 0 4 0 4 4v12c0 0 0 4-4 4h-8c0 1.33 0.16 2.33 0.5 3h1.5c0.26 0 0.51 0.1 0.7 0.29s0.3 0.44 0.3 0.71c0 0.26-0.11 0.51-0.3 0.7s-0.44 0.3-0.7 0.3h-12c-0.27 0-0.52-0.11-0.71-0.3s-0.29-0.44-0.29-0.7c0-0.27 0.1-0.52 0.29-0.71s0.44-0.29 0.71-0.29h1.5c0.33-0.67 0.5-1.67 0.5-3h-8c0 0-4 0-4-4v-12zM2.79 6.28c-0.22 0.16-0.39 0.37-0.51 0.61-0.17 0.35-0.26 0.73-0.28 1.13v11.98c0 0.65 0.15 1 0.29 1.2 0.14 0.21 0.34 0.38 0.6 0.51 0.34 0.16 0.7 0.26 1.080 0.28l0.050 0.010h23.98c0.65 0 1-0.16 1.2-0.29 0.22-0.16 0.39-0.37 0.51-0.61 0.16-0.34 0.26-0.7 0.28-1.070l0.010-0.050v-11.98c0-0.66-0.16-1.010-0.29-1.21-0.16-0.22-0.37-0.39-0.61-0.51-0.35-0.17-0.73-0.26-1.12-0.28h-23.98c-0.65 0-1.010 0.15-1.21 0.28z"></path>
</symbol>

<symbol id="van"  viewBox="0 0 32 32">
<path d="M12 2h-10v28h10v-28zM30 2h-10v10h10v-10zM30 20v10h-10v-10h10zM0 2c0-0.54 0.21-1.040 0.58-1.42 0.38-0.37 0.88-0.58 1.42-0.58h10c0.53 0 1.030 0.21 1.41 0.58 0.37 0.38 0.59 0.88 0.59 1.42v28c0 0.53-0.22 1.030-0.59 1.41-0.38 0.37-0.88 0.59-1.41 0.59h-10c-0.54 0-1.040-0.22-1.42-0.59-0.37-0.38-0.58-0.88-0.58-1.41v-28zM18 2c0-0.54 0.21-1.040 0.58-1.42 0.38-0.37 0.88-0.58 1.42-0.58h10c0.53 0 1.030 0.21 1.41 0.58 0.37 0.38 0.59 0.88 0.59 1.42v10c0 0.53-0.22 1.030-0.59 1.41-0.38 0.37-0.88 0.59-1.41 0.59h-10c-0.54 0-1.040-0.22-1.42-0.59-0.37-0.38-0.58-0.88-0.58-1.41v-10zM20 18c-0.54 0-1.040 0.21-1.42 0.58-0.37 0.38-0.58 0.88-0.58 1.42v10c0 0.53 0.21 1.030 0.58 1.41 0.38 0.37 0.88 0.59 1.42 0.59h10c0.53 0 1.030-0.22 1.41-0.59 0.37-0.38 0.59-0.88 0.59-1.41v-10c0-0.54-0.22-1.040-0.59-1.42-0.38-0.37-0.88-0.58-1.41-0.58h-10z"></path>
</symbol>

<symbol id="water" viewBox="0 0 20 20" fill="none">
  <path d="M15.625 12.5C15.625 15.952 13.452 18.125 10 18.125C6.54805 18.125 4.375 15.952 4.375 12.5C4.375 8.79571 8.40742 3.79492 9.64414 2.34844C9.68815 2.29705 9.74276 2.25579 9.80422 2.2275C9.86568 2.19922 9.93254 2.18457 10.0002 2.18457C10.0679 2.18457 10.1347 2.19922 10.1962 2.2275C10.2576 2.25579 10.3122 2.29705 10.3562 2.34844C11.5926 3.79492 15.625 8.79571 15.625 12.5Z" stroke="#101828" stroke-width="1.25" stroke-miterlimit="10"/>
  <path d="M13.4375 12.8125C13.4375 13.5584 13.1412 14.2738 12.6137 14.8012C12.0863 15.3287 11.3709 15.625 10.625 15.625" stroke="#101828" stroke-width="1.25" stroke-linecap="round" stroke-linejoin="round"/>
</symbol>


<symbol id="wind" viewBox="0 0 32 32">
<path d="M25 4c-1.33 0-2.6 0.52-3.54 1.46s-1.46 2.21-1.46 3.54c0 0.26-0.11 0.51-0.3 0.7s-0.44 0.3-0.7 0.3c-0.27 0-0.52-0.11-0.71-0.3s-0.29-0.44-0.29-0.7c0-1.39 0.41-2.74 1.17-3.89 0.77-1.16 1.87-2.050 3.15-2.58s2.68-0.67 4.040-0.4c1.36 0.27 2.61 0.94 3.58 1.92 0.98 0.97 1.65 2.22 1.92 3.58s0.13 2.76-0.4 4.040c-0.53 1.28-1.42 2.38-2.58 3.15-1.15 0.76-2.5 1.18-3.88 1.18h-24c-0.27 0-0.52-0.11-0.71-0.3s-0.29-0.44-0.29-0.7c0-0.27 0.1-0.52 0.29-0.71s0.44-0.29 0.71-0.29h24c1.32 0 2.59-0.53 3.53-1.47s1.47-2.21 1.47-3.53c0-1.33-0.53-2.6-1.47-3.54s-2.21-1.46-3.53-1.46zM11 6c-0.54 0-1.040 0.21-1.42 0.58-0.37 0.38-0.58 0.88-0.58 1.42 0 0.26-0.11 0.51-0.3 0.7s-0.44 0.3-0.7 0.3c-0.27 0-0.52-0.11-0.71-0.3s-0.29-0.44-0.29-0.7c0-0.8 0.23-1.57 0.67-2.23s1.060-1.17 1.79-1.47c0.74-0.3 1.54-0.38 2.32-0.23 0.77 0.16 1.48 0.54 2.040 1.1s0.94 1.27 1.1 2.040c0.15 0.78 0.070 1.58-0.23 2.32-0.3 0.73-0.81 1.35-1.47 1.79s-1.43 0.68-2.22 0.68h-10c-0.27 0-0.52-0.11-0.71-0.3s-0.29-0.44-0.29-0.7c0-0.27 0.1-0.52 0.29-0.71s0.44-0.29 0.71-0.29h10c0.53 0 1.030-0.22 1.41-0.59 0.37-0.38 0.59-0.88 0.59-1.41 0-0.54-0.22-1.040-0.59-1.42-0.38-0.37-0.88-0.58-1.41-0.58zM0 19c0-0.27 0.1-0.52 0.29-0.71s0.44-0.29 0.71-0.29h20.080c1.19 0 2.35 0.35 3.33 1.010 0.99 0.66 1.76 1.59 2.21 2.69 0.46 1.1 0.58 2.3 0.34 3.47-0.23 1.16-0.8 2.23-1.64 3.070s-1.91 1.41-3.070 1.64c-1.16 0.23-2.37 0.11-3.47-0.34-1.090-0.46-2.030-1.22-2.69-2.21s-1.010-2.15-1.010-3.33c0-0.27 0.1-0.52 0.29-0.71s0.44-0.29 0.71-0.29c0.26 0 0.52 0.1 0.71 0.29 0.18 0.19 0.29 0.44 0.29 0.71 0 0.79 0.23 1.56 0.67 2.22s1.070 1.17 1.8 1.47c0.73 0.3 1.53 0.38 2.31 0.23 0.78-0.16 1.49-0.54 2.050-1.1s0.94-1.27 1.090-2.040c0.16-0.78 0.080-1.58-0.23-2.32-0.3-0.73-0.81-1.35-1.47-1.79s-1.43-0.67-2.22-0.67h-20.080c-0.27 0-0.52-0.11-0.71-0.3s-0.29-0.44-0.29-0.7z"></path>
</symbol>
</defs>
</svg>
