<svg width="100.000000" height="100.000000" viewBox="0 0 100 100" fill="none" xmlns="http://www.w3.org/2000/svg" xmlns:xlink="http://www.w3.org/1999/xlink">
	<defs>
		<clipPath id="clip4_482">
			<rect id="favicon" width="74.000000" height="74.000000" transform="translate(13.000000 13.000000)" fill="white" fill-opacity="0"/>
		</clipPath>
	</defs>
	<rect  width="100.000000" height="100.000000" fill="#FFFFFF" fill-opacity="0"/>
	<rect  rx="16.000000" width="100.000000" height="100.000000" fill="#E44848" />
	<g clip-path="url(#clip4_482)">
		<path id="path" d="M82.35 50.77L78.59 49.15C78.18 48.98 77.85 48.61 77.73 48.18L74.11 36.12L78.89 36.12C80.12 36.12 81.24 35.55 81.98 34.56C82.72 33.58 82.94 32.33 82.59 31.16L81.23 26.64C80.44 24.02 78.07 22.25 75.31 22.25L20.7 22.25C16.45 22.25 13 25.7 13 29.95L13 63.87C13 68.12 16.45 71.58 20.7 71.58L20.86 71.58C21.58 75.09 24.69 77.75 28.41 77.75C32.13 77.75 35.25 75.09 35.96 71.58L64.03 71.58C64.74 75.09 67.86 77.75 71.58 77.75C75.3 77.75 78.41 75.09 79.13 71.58L80.83 71.58C84.24 71.58 87 68.82 87 65.41L87 57.84C87 54.76 85.18 51.98 82.35 50.77ZM74.58 48.45L65.41 48.45L65.41 43.83L73.2 43.83L74.58 48.45ZM16.08 29.95C16.08 27.41 18.16 25.33 20.7 25.33L75.31 25.33C76.68 25.33 77.88 26.21 78.27 27.53L79.63 32.05C79.73 32.37 79.6 32.61 79.52 32.73C79.43 32.84 79.23 33.04 78.89 33.04L16.08 33.04L16.08 29.95ZM28.41 74.66C25.86 74.66 23.79 72.59 23.79 70.04C23.79 67.49 25.86 65.41 28.41 65.41C30.96 65.41 33.04 67.49 33.04 70.04C33.04 72.59 30.96 74.66 28.41 74.66ZM56.16 68.5L43.83 68.5L43.83 43.83L56.16 43.83L56.16 68.5ZM71.58 74.66C69.03 74.66 66.95 72.59 66.95 70.04C66.95 67.49 69.03 65.41 71.58 65.41C74.13 65.41 76.2 67.49 76.2 70.04C76.2 72.59 74.13 74.66 71.58 74.66ZM83.91 65.41C83.91 67.11 82.52 68.5 80.83 68.5L79.13 68.5C78.41 64.98 75.3 62.33 71.58 62.33C67.86 62.33 64.74 64.98 64.03 68.5L59.25 68.5L59.25 43.83C59.25 42.13 57.86 40.75 56.16 40.75L43.83 40.75C42.13 40.75 40.75 42.13 40.75 43.83L40.75 68.5L35.96 68.5C35.25 64.98 32.13 62.33 28.41 62.33C24.69 62.33 21.58 64.98 20.86 68.5L20.7 68.5C18.16 68.5 16.08 66.41 16.08 63.87L16.08 36.12L70.89 36.12L72.28 40.75L65.41 40.75C63.71 40.75 62.33 42.13 62.33 43.83L62.33 48.45C62.33 50.15 63.71 51.54 65.41 51.54L76.57 51.54C76.83 51.71 77.09 51.86 77.37 51.98L81.12 53.6C82.82 54.33 83.91 55.99 83.91 57.84L83.91 65.41Z" fill="#FFFFFF" fill-rule="nonzero"/>
		<path id="path" d="M78.59 49.15C78.18 48.98 77.85 48.61 77.73 48.18L74.11 36.12L78.89 36.12C80.12 36.12 81.24 35.55 81.98 34.56C82.72 33.58 82.94 32.33 82.59 31.16L81.23 26.64C80.44 24.02 78.07 22.25 75.31 22.25L20.7 22.25C16.45 22.25 13 25.7 13 29.95L13 63.87C13 68.12 16.45 71.58 20.7 71.58L20.86 71.58C21.58 75.09 24.69 77.75 28.41 77.75C32.13 77.75 35.25 75.09 35.96 71.58L64.03 71.58C64.74 75.09 67.86 77.75 71.58 77.75C75.3 77.75 78.41 75.09 79.13 71.58L80.83 71.58C84.24 71.58 87 68.82 87 65.41L87 57.84C87 54.76 85.18 51.98 82.35 50.77L78.59 49.15ZM65.41 48.45L65.41 43.83L73.2 43.83L74.58 48.45L65.41 48.45ZM20.7 25.33L75.31 25.33C76.68 25.33 77.88 26.21 78.27 27.53L79.63 32.05C79.73 32.37 79.6 32.61 79.52 32.73C79.43 32.84 79.23 33.04 78.89 33.04L16.08 33.04L16.08 29.95C16.08 27.41 18.16 25.33 20.7 25.33ZM23.79 70.04C23.79 67.49 25.86 65.41 28.41 65.41C30.96 65.41 33.04 67.49 33.04 70.04C33.04 72.59 30.96 74.66 28.41 74.66C25.86 74.66 23.79 72.59 23.79 70.04ZM43.83 68.5L43.83 43.83L56.16 43.83L56.16 68.5L43.83 68.5ZM66.95 70.04C66.95 67.49 69.03 65.41 71.58 65.41C74.13 65.41 76.2 67.49 76.2 70.04C76.2 72.59 74.13 74.66 71.58 74.66C69.03 74.66 66.95 72.59 66.95 70.04ZM80.83 68.5L79.13 68.5C78.41 64.98 75.3 62.33 71.58 62.33C67.86 62.33 64.74 64.98 64.03 68.5L59.25 68.5L59.25 43.83C59.25 42.13 57.86 40.75 56.16 40.75L43.83 40.75C42.13 40.75 40.75 42.13 40.75 43.83L40.75 68.5L35.96 68.5C35.25 64.98 32.13 62.33 28.41 62.33C24.69 62.33 21.58 64.98 20.86 68.5L20.7 68.5C18.16 68.5 16.08 66.41 16.08 63.87L16.08 36.12L70.89 36.12L72.28 40.75L65.41 40.75C63.71 40.75 62.33 42.13 62.33 43.83L62.33 48.45C62.33 50.15 63.71 51.54 65.41 51.54L76.57 51.54C76.83 51.71 77.09 51.86 77.37 51.98L81.12 53.6C82.82 54.33 83.91 55.99 83.91 57.84L83.91 65.41C83.91 67.11 82.52 68.5 80.83 68.5Z" stroke="#FFFFFF"  stroke-width="0.100000"/>
		<circle id="circle" cx="28.416687" cy="70.041672" r="1.541667" fill="#FFFFFF" />
		<circle id="circle" cx="28.416687" cy="70.041672" r="1.541667" stroke="#FFFFFF"  stroke-width="0.100000"/>
		<circle id="circle" cx="71.583313" cy="70.041672" r="1.541667" fill="#FFFFFF" />
		<circle id="circle" cx="71.583313" cy="70.041672" r="1.541667" stroke="#FFFFFF"  stroke-width="0.100000"/>
		<path id="path" d="M53.08 54.62C53.93 54.62 54.62 53.93 54.62 53.08L54.62 51.54C54.62 50.69 53.93 50 53.08 50C52.23 50 51.54 50.69 51.54 51.54L51.54 53.08C51.54 53.93 52.23 54.62 53.08 54.62Z" fill="#FFFFFF"  fill-rule="nonzero"/>
		<path id="path" d="M54.62 53.08L54.62 51.54C54.62 50.69 53.93 50 53.08 50C52.23 50 51.54 50.69 51.54 51.54L51.54 53.08C51.54 53.93 52.23 54.62 53.08 54.62C53.93 54.62 54.62 53.93 54.62 53.08Z" stroke="#FFFFFF"  stroke-width="0.100000"/>
		<path id="path" d="M34.58 40.75L22.25 40.75C20.54 40.75 19.16 42.13 19.16 43.83L19.16 48.45C19.16 50.15 20.54 51.54 22.25 51.54L34.58 51.54C36.28 51.54 37.66 50.15 37.66 48.45L37.66 43.83C37.66 42.13 36.28 40.75 34.58 40.75ZM34.58 48.45L22.25 48.45L22.25 43.83L34.58 43.83L34.58 48.45Z" fill="#FFFFFF"  fill-rule="nonzero"/>
		<path id="path" d="M22.25 40.75C20.54 40.75 19.16 42.13 19.16 43.83L19.16 48.45C19.16 50.15 20.54 51.54 22.25 51.54L34.58 51.54C36.28 51.54 37.66 50.15 37.66 48.45L37.66 43.83C37.66 42.13 36.28 40.75 34.58 40.75L22.25 40.75ZM22.25 48.45L22.25 43.83L34.58 43.83L34.58 48.45L22.25 48.45Z" stroke="#FFFFFF"  stroke-width="0.100000"/>
	</g>
</svg>
