<svg xmlns="http://www.w3.org/2000/svg" xml:space="preserve" width="1.99999in" height="1.99999in" version="1.1" style="shape-rendering:geometricPrecision; text-rendering:geometricPrecision; image-rendering:optimizeQuality; fill-rule:evenodd; clip-rule:evenodd" viewBox="0 0 2000 2000" xmlns:xlink="http://www.w3.org/1999/xlink">
 <defs>
  <style type="text/css">
   
    .fil0 {fill:#27D389}
    .fil7 {fill:#333333}
    .fil5 {fill:#58535A}
    .fil1 {fill:#AA2323}
    .fil6 {fill:#BAFFFF}
    .fil3 {fill:#D02929}
    .fil4 {fill:#FF3131}
    .fil2 {fill:#FFA721}
    .fil8 {fill:white}
   
  </style>
 </defs>
 <g id="Layer_x0020_1">
  <metadata id="CorelCorpID_0Corel-Layer"></metadata>
  <path class="fil0" d="M1753 1580l-1506 0c-15,0 -26,-12 -26,-26 0,-14 11,-26 26,-26l1506 0c15,0 26,12 26,26 0,14 -11,26 -26,26z" id="id_101" style="fill: rgb(204, 204, 204);"></path>
  <path class="fil1" d="M1348 732c-14,0 -26,-11 -26,-26l0 -157c0,-14 12,-25 26,-25 14,0 26,11 26,25l0 157c0,15 -12,26 -26,26z" id="id_102"></path>
  <path class="fil1" d="M1422 575l-1059 0c-14,0 -26,-11 -26,-26l0 -1c0,-71 57,-128 128,-128l855 0c71,0 128,57 128,128l0 1c0,15 -11,26 -26,26z" id="id_103"></path>
  <path class="fil2" d="M1793 1312l-78 0c-14,0 -26,-12 -26,-26l0 -151c0,-14 12,-26 26,-26l56 0c45,0 82,37 82,82l0 61c0,33 -27,60 -60,60z" id="id_104"></path>
  <path class="fil3" d="M1734 1428l-496 0c-31,0 -41,-51 7,-51 -14,-125 -34,-658 -34,-671 0,-14 12,-25 26,-25l216 0c21,0 38,9 186,231 7,10 13,19 17,25l107 22c16,3 29,29 29,39l0 370c0,33 -26,60 -58,60z" id="id_105"></path>
  <path class="fil1" d="M1220 937c-1,-18 -1,-35 -2,-52l403 0c6,9 12,18 18,27 7,10 13,19 17,25l-436 0z" id="id_106"></path>
  <path class="fil4" d="M1238 1428l-575 0c-11,0 -21,-7 -25,-16 -70,10 -267,16 -278,16l-17 0c-108,0 -196,-87 -196,-195l0 -514c0,-108 88,-195 196,-195l725 0c108,0 196,87 196,195l0 684c0,14 -12,25 -26,25z" id="id_107"></path>
  <path class="fil3" d="M1155 1428l-399 0 0 -552c0,-42 35,-77 77,-77l245 0c42,0 77,35 77,77l0 552z" id="id_108"></path>
  <path class="fil5" d="M624 1050l-263 0c-51,0 -93,-42 -93,-93l0 -191c0,-52 42,-94 93,-94l263 0c52,0 94,42 94,94l0 191c0,51 -42,93 -94,93z" id="id_109"></path>
  <path class="fil6" d="M624 1034l-263 0c-42,0 -77,-35 -77,-77l0 -191c0,-42 35,-77 77,-77l263 0c43,0 77,35 77,77l0 191c0,42 -34,77 -77,77z" id="id_110"></path>
  <polygon class="fil5" points="429,1034 406,1034 406,689 429,689 " id="id_111"></polygon>
  <path class="fil7" d="M511 1580c-98,0 -177,-80 -177,-177 0,-98 79,-178 177,-178 98,0 177,80 177,178 0,97 -79,177 -177,177z" id="id_112"></path>
  <path class="fil7" d="M1428 1580c-98,0 -178,-80 -178,-177 0,-98 80,-178 178,-178 97,0 177,80 177,178 0,97 -80,177 -177,177z" id="id_113"></path>
  <path class="fil8" d="M1428 1491c-49,0 -89,-40 -89,-88 0,-49 40,-89 89,-89 48,0 88,40 88,89 0,48 -40,88 -88,88z" id="id_114"></path>
  <path class="fil1" d="M1043 1193c-15,0 -26,-12 -26,-26l0 -106c0,-14 11,-26 26,-26 14,0 26,12 26,26l0 106c0,14 -12,26 -26,26z" id="id_115"></path>
  <path class="fil1" d="M1396 1075l-77 0c-15,0 -26,-12 -26,-26 0,-14 11,-26 26,-26l77 0c14,0 26,12 26,26 0,14 -12,26 -26,26z" id="id_116"></path>
  <path class="fil8" d="M511 1491c-48,0 -88,-40 -88,-88 0,-49 40,-89 88,-89 49,0 88,40 88,89 0,48 -39,88 -88,88z" id="id_117"></path>
 </g>
</svg>